<?xml version="1.0" encoding="UTF-8" standalone="no"?>
<svg
   version="1.1"
   width="84.351341mm"
   height="61.9814mm"
   viewBox="0 0 84.351342 61.981399"
   id="svg236"
   sodipodi:docname="pcbb.svg"
   xmlns:inkscape="http://www.inkscape.org/namespaces/inkscape"
   xmlns:sodipodi="http://sodipodi.sourceforge.net/DTD/sodipodi-0.dtd"
   xmlns="http://www.w3.org/2000/svg"
   xmlns:svg="http://www.w3.org/2000/svg">
  <defs
     id="defs240" />
  <sodipodi:namedview
     id="namedview238"
     pagecolor="#ffffff"
     bordercolor="#000000"
     borderopacity="0.25"
     inkscape:showpageshadow="2"
     inkscape:pageopacity="0.0"
     inkscape:pagecheckerboard="0"
     inkscape:deskcolor="#d1d1d1"
     inkscape:document-units="mm" />
  <title
     id="title2">SVG Image created as pcbb.svg date 2025/01/21 05:01:04 </title>
  <desc
     id="desc4">Image generated by PCBNEW </desc>
  <g
     style="fill:#000000;fill-opacity:1;stroke:#000000;stroke-linecap:round;stroke-linejoin:round;stroke-opacity:1"
     id="g6"
     transform="translate(-108.41371,-60.5636)" />
  <g
     style="fill:#000000;fill-opacity:1;stroke:none"
     id="g10"
     transform="translate(-108.41371,-60.5636)">
    <circle
       cx="153.48219"
       cy="116.175"
       r="0.30000001"
       id="circle8" />
  </g>
  <g
     style="fill:#000000;fill-opacity:1;stroke:none"
     id="g14"
     transform="translate(-108.41371,-60.5636)">
    <circle
       cx="147.70219"
       cy="116.175"
       r="0.30000001"
       id="circle12" />
  </g>
  <g
     style="fill:none;stroke:#000000;stroke-width:0.6;stroke-linecap:round;stroke-linejoin:round;stroke-opacity:1"
     id="g24"
     transform="translate(-108.41371,-60.5636)">
    <path
       d="m 154.9122,116.245 v -1.1"
       id="path16" />
    <path
       d="m 154.9122,120.265 v -0.8"
       id="path18" />
    <path
       d="m 146.2722,116.245 v -1.1"
       id="path20" />
    <path
       d="m 146.2722,120.265 v -0.8"
       id="path22" />
  </g>
  <g
     style="fill:#02ffee;fill-opacity:0.4;stroke:none"
     id="g28"
     transform="translate(-108.41371,-60.5636)">
    <circle
       cx="153.48219"
       cy="116.175"
       r="0.30000001"
       id="circle26" />
  </g>
  <g
     style="fill:#02ffee;fill-opacity:0.4;stroke:none"
     id="g32"
     transform="translate(-108.41371,-60.5636)">
    <circle
       cx="147.70219"
       cy="116.175"
       r="0.30000001"
       id="circle30" />
  </g>
  <g
     style="fill:none;stroke:#02ffee;stroke-width:0.9;stroke-linecap:round;stroke-linejoin:round;stroke-opacity:1"
     id="g78"
     transform="translate(-108.41371,-60.5636)">
    <path
       d="m 154.9122,116.245 v -1.1"
       id="path34" />
    <path
       d="m 154.9122,120.265 v -0.8"
       id="path36" />
    <path
       d="m 146.2722,116.245 v -1.1"
       id="path38" />
    <path
       d="m 146.2722,120.265 v -0.8"
       id="path40" />
    <path
       style="fill:#02ffee;fill-opacity:0.4;fill-rule:evenodd;stroke:none"
       d="m 160.4392,66.2886 v -4.3 h -0.7 v 4.3 z"
       id="path42" />
    <path
       style="fill:#02ffee;fill-opacity:0.4;fill-rule:evenodd;stroke:none"
       d="m 159.4392,66.2886 v -4.3 h -0.7 v 4.3 z"
       id="path44" />
    <path
       style="fill:#02ffee;fill-opacity:0.4;fill-rule:evenodd;stroke:none"
       d="m 158.4392,66.2886 v -4.3 h -0.7 v 4.3 z"
       id="path46" />
    <path
       style="fill:#02ffee;fill-opacity:0.4;fill-rule:evenodd;stroke:none"
       d="m 157.4392,66.2886 v -4.3 h -0.7 v 4.3 z"
       id="path48" />
    <path
       style="fill:#02ffee;fill-opacity:0.4;fill-rule:evenodd;stroke:none"
       d="m 156.4392,66.2886 v -4.3 h -0.7 v 4.3 z"
       id="path50" />
    <path
       style="fill:#02ffee;fill-opacity:0.4;fill-rule:evenodd;stroke:none"
       d="m 155.4392,66.2886 v -4.3 h -0.7 v 4.3 z"
       id="path52" />
    <path
       style="fill:#02ffee;fill-opacity:0.4;fill-rule:evenodd;stroke:none"
       d="m 154.4392,66.2886 v -4.3 h -0.7 v 4.3 z"
       id="path54" />
    <path
       style="fill:#02ffee;fill-opacity:0.4;fill-rule:evenodd;stroke:none"
       d="m 153.4392,66.2886 v -4.3 h -0.7 v 4.3 z"
       id="path56" />
    <path
       style="fill:#02ffee;fill-opacity:0.4;fill-rule:evenodd;stroke:none"
       d="m 152.4392,66.2886 v -4.3 h -0.7 v 4.3 z"
       id="path58" />
    <path
       style="fill:#02ffee;fill-opacity:0.4;fill-rule:evenodd;stroke:none"
       d="m 151.4392,66.2886 v -4.3 h -0.7 v 4.3 z"
       id="path60" />
    <path
       style="fill:#02ffee;fill-opacity:0.4;fill-rule:evenodd;stroke:none"
       d="m 150.4392,66.2886 v -4.3 h -0.7 v 4.3 z"
       id="path62" />
    <path
       style="fill:#02ffee;fill-opacity:0.4;fill-rule:evenodd;stroke:none"
       d="m 147.4392,66.2886 v -4.3 h -0.7 v 4.3 z"
       id="path64" />
    <path
       style="fill:#02ffee;fill-opacity:0.4;fill-rule:evenodd;stroke:none"
       d="m 146.4392,66.2886 v -4.3 h -0.7 v 4.3 z"
       id="path66" />
    <path
       style="fill:#02ffee;fill-opacity:0.4;fill-rule:evenodd;stroke:none"
       d="m 145.4392,66.2886 v -4.3 h -0.7 v 4.3 z"
       id="path68" />
    <path
       style="fill:#02ffee;fill-opacity:0.4;fill-rule:evenodd;stroke:none"
       d="m 144.4392,66.2886 v -4.3 h -0.7 v 4.3 z"
       id="path70" />
    <path
       style="fill:#02ffee;fill-opacity:0.4;fill-rule:evenodd;stroke:none"
       d="m 143.4392,66.2886 v -4.3 h -0.7 v 4.3 z"
       id="path72" />
    <path
       style="fill:#02ffee;fill-opacity:0.4;fill-rule:evenodd;stroke:none"
       d="m 142.4392,66.2886 v -4.3 h -0.7 v 4.3 z"
       id="path74" />
    <path
       style="fill:#02ffee;fill-opacity:0.4;fill-rule:evenodd;stroke:none"
       d="m 141.4392,66.2886 v -4.3 h -0.7 v 4.3 z"
       id="path76" />
  </g>
  <g
     style="fill:none;stroke:#d0d2cd;stroke-width:0.25;stroke-linecap:round;stroke-linejoin:round;stroke-opacity:1"
     id="g152"
     transform="translate(-108.41371,-60.5636)">
    <path
       d="m 137.3241,68.8355 -6.2057,-6.5229"
       id="path80" />
    <path
       d="m 163.8582,68.8318 6.2022,-6.5192"
       id="path82" />
    <path
       d="m 122.4906,122.42 h 56.1976"
       id="path84" />
    <circle
       cx="113.5889"
       cy="110.0686"
       r="3.3499999"
       id="circle86" />
    <path
       d="m 137.3241,68.8355 a 1.0001,1.0001 0 0 0 0.7245,0.3108"
       id="path88" />
    <path
       d="m 108.7698,108.5589 a 5.05,5.05 0 0 0 1.6165,5.4143"
       id="path90" />
    <path
       d="M 163.1302,69.1462 H 161.247"
       id="path92" />
    <path
       d="m 178.6882,122.42 a 5.05,5.05 0 0 0 3.2026,-1.1454"
       id="path94" />
    <path
       d="m 138.0486,69.1462 h 1.8831"
       id="path96" />
    <path
       d="m 122.6406,64.2837 v 0"
       id="path98" />
    <path
       d="m 110.3863,113.9732 8.9017,7.3013"
       id="path100" />
    <path
       d="m 163.1302,69.1462 a 0.9999,0.9999 0 0 0 0.728,-0.3144"
       id="path102" />
    <path
       d="m 131.1184,62.3126 a 5.0501,5.0501 0 0 0 -8.4779,1.9711"
       id="path104" />
    <path
       d="m 178.5381,64.2837 a 5.05,5.05 0 0 0 -8.4777,-1.9711"
       id="path106" />
    <circle
       cx="187.5898"
       cy="110.0686"
       r="3.3499999"
       id="circle108" />
    <path
       d="m 160.747,68.6463 a 0.5,0.5 0 0 0 0.5,0.5"
       id="path110" />
    <path
       d="m 122.6406,64.2837 -13.8708,44.2752"
       id="path112" />
    <circle
       cx="127.4596"
       cy="65.793503"
       r="3.3499999"
       id="circle114" />
    <circle
       cx="173.7191"
       cy="65.793503"
       r="3.3499999"
       id="circle116" />
    <path
       d="m 190.7924,113.9732 -8.9016,7.3014"
       id="path118" />
    <path
       d="m 178.5381,64.2837 v 0"
       id="path120" />
    <path
       d="m 139.9317,69.1462 a 0.5,0.5 0 0 0 0.5,-0.5"
       id="path122" />
    <path
       d="m 178.5381,64.2837 13.8757,44.2909"
       id="path124" />
    <path
       d="m 190.7924,113.9732 a 5.0502,5.0502 0 0 0 1.6215,-5.3986"
       id="path126" />
    <path
       d="m 119.288,121.2745 a 5.05,5.05 0 0 0 3.2026,1.1455"
       id="path128" />
    <path
       d="m 160.7392,61.1886 v 7.4563"
       id="path130" />
    <path
       d="m 160.2392,60.6886 0.5,0.5"
       id="path132" />
    <path
       d="m 150.0392,60.6886 h 10.2"
       id="path134" />
    <path
       d="m 150.0392,60.6886 -0.5,0.5"
       id="path136" />
    <path
       d="m 149.5392,61.1886 v 6.95"
       id="path138" />
    <path
       d="m 147.6392,61.1886 v 6.95"
       id="path140" />
    <path
       d="m 147.1392,60.6886 0.5,0.5"
       id="path142" />
    <path
       d="m 140.9392,60.6886 h 6.2"
       id="path144" />
    <path
       d="m 140.9392,60.6886 -0.5,0.5"
       id="path146" />
    <path
       d="M 140.4392,68.6449 V 61.1886"
       id="path148" />
    <path
       d="m 147.6392,68.1386 a 0.95,0.95 0 0 0 1.9,0"
       id="path150" />
  </g>
  <g
     style="fill:#d0d2cd;fill-opacity:1;stroke:none"
     id="g156"
     transform="translate(-108.41371,-60.5636)">
    <circle
       cx="153.48219"
       cy="116.175"
       r="0.30000001"
       id="circle154" />
  </g>
  <g
     style="fill:#d0d2cd;fill-opacity:1;stroke:none"
     id="g160"
     transform="translate(-108.41371,-60.5636)">
    <circle
       cx="147.70219"
       cy="116.175"
       r="0.30000001"
       id="circle158" />
  </g>
  <g
     style="fill:none;stroke:#d0d2cd;stroke-width:0.6;stroke-linecap:round;stroke-linejoin:round;stroke-opacity:1"
     id="g170"
     transform="translate(-108.41371,-60.5636)">
    <path
       d="m 154.9122,116.245 v -1.1"
       id="path162" />
    <path
       d="m 154.9122,120.265 v -0.8"
       id="path164" />
    <path
       d="m 146.2722,116.245 v -1.1"
       id="path166" />
    <path
       d="m 146.2722,120.265 v -0.8"
       id="path168" />
  </g>
  <g
     style="fill:none;stroke:#4d7fc4;stroke-width:0.9;stroke-linecap:round;stroke-linejoin:round;stroke-opacity:1"
     id="g216"
     transform="translate(-108.41371,-60.5636)">
    <path
       d="m 154.9122,116.245 v -1.1"
       id="path172" />
    <path
       d="m 154.9122,120.265 v -0.8"
       id="path174" />
    <path
       d="m 146.2722,116.245 v -1.1"
       id="path176" />
    <path
       d="m 146.2722,120.265 v -0.8"
       id="path178" />
    <path
       style="fill:#4d7fc4;fill-opacity:1;fill-rule:evenodd;stroke:none"
       d="m 160.4392,66.2886 v -4.3 h -0.7 v 4.3 z"
       id="path180" />
    <path
       style="fill:#4d7fc4;fill-opacity:1;fill-rule:evenodd;stroke:none"
       d="m 159.4392,66.2886 v -4.3 h -0.7 v 4.3 z"
       id="path182" />
    <path
       style="fill:#4d7fc4;fill-opacity:1;fill-rule:evenodd;stroke:none"
       d="m 158.4392,66.2886 v -4.3 h -0.7 v 4.3 z"
       id="path184" />
    <path
       style="fill:#4d7fc4;fill-opacity:1;fill-rule:evenodd;stroke:none"
       d="m 157.4392,66.2886 v -4.3 h -0.7 v 4.3 z"
       id="path186" />
    <path
       style="fill:#4d7fc4;fill-opacity:1;fill-rule:evenodd;stroke:none"
       d="m 156.4392,66.2886 v -4.3 h -0.7 v 4.3 z"
       id="path188" />
    <path
       style="fill:#4d7fc4;fill-opacity:1;fill-rule:evenodd;stroke:none"
       d="m 155.4392,66.2886 v -4.3 h -0.7 v 4.3 z"
       id="path190" />
    <path
       style="fill:#4d7fc4;fill-opacity:1;fill-rule:evenodd;stroke:none"
       d="m 154.4392,66.2886 v -4.3 h -0.7 v 4.3 z"
       id="path192" />
    <path
       style="fill:#4d7fc4;fill-opacity:1;fill-rule:evenodd;stroke:none"
       d="m 153.4392,66.2886 v -4.3 h -0.7 v 4.3 z"
       id="path194" />
    <path
       style="fill:#4d7fc4;fill-opacity:1;fill-rule:evenodd;stroke:none"
       d="m 152.4392,66.2886 v -4.3 h -0.7 v 4.3 z"
       id="path196" />
    <path
       style="fill:#4d7fc4;fill-opacity:1;fill-rule:evenodd;stroke:none"
       d="m 151.4392,66.2886 v -4.3 h -0.7 v 4.3 z"
       id="path198" />
    <path
       style="fill:#4d7fc4;fill-opacity:1;fill-rule:evenodd;stroke:none"
       d="m 150.4392,66.2886 v -4.3 h -0.7 v 4.3 z"
       id="path200" />
    <path
       style="fill:#4d7fc4;fill-opacity:1;fill-rule:evenodd;stroke:none"
       d="m 147.4392,66.2886 v -4.3 h -0.7 v 4.3 z"
       id="path202" />
    <path
       style="fill:#4d7fc4;fill-opacity:1;fill-rule:evenodd;stroke:none"
       d="m 146.4392,66.2886 v -4.3 h -0.7 v 4.3 z"
       id="path204" />
    <path
       style="fill:#4d7fc4;fill-opacity:1;fill-rule:evenodd;stroke:none"
       d="m 145.4392,66.2886 v -4.3 h -0.7 v 4.3 z"
       id="path206" />
    <path
       style="fill:#4d7fc4;fill-opacity:1;fill-rule:evenodd;stroke:none"
       d="m 144.4392,66.2886 v -4.3 h -0.7 v 4.3 z"
       id="path208" />
    <path
       style="fill:#4d7fc4;fill-opacity:1;fill-rule:evenodd;stroke:none"
       d="m 143.4392,66.2886 v -4.3 h -0.7 v 4.3 z"
       id="path210" />
    <path
       style="fill:#4d7fc4;fill-opacity:1;fill-rule:evenodd;stroke:none"
       d="m 142.4392,66.2886 v -4.3 h -0.7 v 4.3 z"
       id="path212" />
    <path
       style="fill:#4d7fc4;fill-opacity:1;fill-rule:evenodd;stroke:none"
       d="m 141.4392,66.2886 v -4.3 h -0.7 v 4.3 z"
       id="path214" />
  </g>
  <g
     style="fill:#ffffff;fill-opacity:1;stroke:none"
     id="g220"
     transform="translate(-108.41371,-60.5636)">
    <circle
       cx="153.48219"
       cy="116.175"
       r="0.30000001"
       id="circle218" />
  </g>
  <g
     style="fill:#ffffff;fill-opacity:1;stroke:none"
     id="g224"
     transform="translate(-108.41371,-60.5636)">
    <circle
       cx="147.70219"
       cy="116.175"
       r="0.30000001"
       id="circle222" />
  </g>
  <g
     style="fill:none;stroke:#ffffff;stroke-width:0.6;stroke-linecap:round;stroke-linejoin:round;stroke-opacity:1"
     id="g234"
     transform="translate(-108.41371,-60.5636)">
    <path
       d="m 154.9122,116.245 v -1.1"
       id="path226" />
    <path
       d="m 154.9122,120.265 v -0.8"
       id="path228" />
    <path
       d="m 146.2722,116.245 v -1.1"
       id="path230" />
    <path
       d="m 146.2722,120.265 v -0.8"
       id="path232" />
  </g>
</svg>
